<mxfile host="Electron" modified="2024-07-05T05:51:02.913Z" agent="Mozilla/5.0 (Windows NT 10.0; Win64; x64) AppleWebKit/537.36 (KHTML, like Gecko) draw.io/24.0.4 Chrome/120.0.6099.109 Electron/28.1.0 Safari/537.36" etag="Tutb-j_WZ2q4OTvHB6xb" version="24.0.4" type="device">
  <diagram name="第 1 页" id="-1gkpBxF_W-AXcz40g8E">
    <mxGraphModel dx="1221" dy="823" grid="1" gridSize="10" guides="1" tooltips="1" connect="1" arrows="1" fold="1" page="1" pageScale="1" pageWidth="1654" pageHeight="1169" math="0" shadow="0">
      <root>
        <mxCell id="0" />
        <mxCell id="1" parent="0" />
        <mxCell id="u8Xegxe5MPUKFt8qsZWl-1" value="RSSC MGIS 2024.1.0 功能模块图&lt;div&gt;Draw by Error Chtholly 2024.&lt;/div&gt;" style="text;html=1;align=center;verticalAlign=middle;resizable=0;points=[];autosize=1;strokeColor=none;fillColor=none;" vertex="1" parent="1">
          <mxGeometry x="10" y="10" width="200" height="40" as="geometry" />
        </mxCell>
        <mxCell id="u8Xegxe5MPUKFt8qsZWl-2" value="RSSC MGIS 2024.1.0" style="rounded=0;whiteSpace=wrap;html=1;" vertex="1" parent="1">
          <mxGeometry x="330" y="50" width="140" height="30" as="geometry" />
        </mxCell>
        <mxCell id="u8Xegxe5MPUKFt8qsZWl-3" value="" style="shape=curlyBracket;whiteSpace=wrap;html=1;rounded=1;flipH=1;labelPosition=right;verticalLabelPosition=middle;align=left;verticalAlign=middle;rotation=-90;" vertex="1" parent="1">
          <mxGeometry x="390" y="-220" width="20" height="650" as="geometry" />
        </mxCell>
        <mxCell id="u8Xegxe5MPUKFt8qsZWl-4" value="工程文件" style="rounded=0;whiteSpace=wrap;html=1;" vertex="1" parent="1">
          <mxGeometry x="40" y="120" width="70" height="30" as="geometry" />
        </mxCell>
        <mxCell id="u8Xegxe5MPUKFt8qsZWl-5" value="地图操作" style="rounded=0;whiteSpace=wrap;html=1;" vertex="1" parent="1">
          <mxGeometry x="170" y="120" width="70" height="30" as="geometry" />
        </mxCell>
        <mxCell id="u8Xegxe5MPUKFt8qsZWl-6" value="添加数据" style="rounded=0;whiteSpace=wrap;html=1;" vertex="1" parent="1">
          <mxGeometry x="300" y="120" width="70" height="30" as="geometry" />
        </mxCell>
        <mxCell id="u8Xegxe5MPUKFt8qsZWl-7" value="编辑要素" style="rounded=0;whiteSpace=wrap;html=1;" vertex="1" parent="1">
          <mxGeometry x="430" y="120" width="70" height="30" as="geometry" />
        </mxCell>
        <mxCell id="u8Xegxe5MPUKFt8qsZWl-8" value="遥感分类" style="rounded=0;whiteSpace=wrap;html=1;" vertex="1" parent="1">
          <mxGeometry x="560" y="120" width="70" height="30" as="geometry" />
        </mxCell>
        <mxCell id="u8Xegxe5MPUKFt8qsZWl-9" value="关于系统" style="rounded=0;whiteSpace=wrap;html=1;" vertex="1" parent="1">
          <mxGeometry x="690" y="120" width="70" height="30" as="geometry" />
        </mxCell>
        <mxCell id="u8Xegxe5MPUKFt8qsZWl-11" value="" style="shape=curlyBracket;whiteSpace=wrap;html=1;rounded=1;flipH=1;labelPosition=right;verticalLabelPosition=middle;align=left;verticalAlign=middle;rotation=-90;" vertex="1" parent="1">
          <mxGeometry x="65" y="110" width="20" height="120" as="geometry" />
        </mxCell>
        <mxCell id="u8Xegxe5MPUKFt8qsZWl-12" value="" style="shape=curlyBracket;whiteSpace=wrap;html=1;rounded=1;flipH=1;labelPosition=right;verticalLabelPosition=middle;align=left;verticalAlign=middle;rotation=-90;" vertex="1" parent="1">
          <mxGeometry x="190" y="110" width="20" height="120" as="geometry" />
        </mxCell>
        <mxCell id="u8Xegxe5MPUKFt8qsZWl-13" value="" style="shape=curlyBracket;whiteSpace=wrap;html=1;rounded=1;flipH=1;labelPosition=right;verticalLabelPosition=middle;align=left;verticalAlign=middle;rotation=-90;" vertex="1" parent="1">
          <mxGeometry x="325" y="110" width="20" height="120" as="geometry" />
        </mxCell>
        <mxCell id="u8Xegxe5MPUKFt8qsZWl-14" value="" style="shape=curlyBracket;whiteSpace=wrap;html=1;rounded=1;flipH=1;labelPosition=right;verticalLabelPosition=middle;align=left;verticalAlign=middle;rotation=-90;" vertex="1" parent="1">
          <mxGeometry x="455" y="110" width="20" height="120" as="geometry" />
        </mxCell>
        <mxCell id="u8Xegxe5MPUKFt8qsZWl-15" value="" style="shape=curlyBracket;whiteSpace=wrap;html=1;rounded=1;flipH=1;labelPosition=right;verticalLabelPosition=middle;align=left;verticalAlign=middle;rotation=-90;" vertex="1" parent="1">
          <mxGeometry x="585" y="110" width="20" height="120" as="geometry" />
        </mxCell>
        <mxCell id="u8Xegxe5MPUKFt8qsZWl-16" value="" style="shape=curlyBracket;whiteSpace=wrap;html=1;rounded=1;flipH=1;labelPosition=right;verticalLabelPosition=middle;align=left;verticalAlign=middle;rotation=-90;" vertex="1" parent="1">
          <mxGeometry x="715" y="110" width="20" height="120" as="geometry" />
        </mxCell>
        <mxCell id="u8Xegxe5MPUKFt8qsZWl-17" value="打开工程" style="rounded=0;whiteSpace=wrap;html=1;" vertex="1" parent="1">
          <mxGeometry x="20" y="190" width="20" height="90" as="geometry" />
        </mxCell>
        <mxCell id="u8Xegxe5MPUKFt8qsZWl-18" value="保存工程" style="rounded=0;whiteSpace=wrap;html=1;" vertex="1" parent="1">
          <mxGeometry x="50" y="190" width="20" height="90" as="geometry" />
        </mxCell>
        <mxCell id="u8Xegxe5MPUKFt8qsZWl-19" value="导出地图" style="rounded=0;whiteSpace=wrap;html=1;" vertex="1" parent="1">
          <mxGeometry x="80" y="190" width="20" height="90" as="geometry" />
        </mxCell>
        <mxCell id="u8Xegxe5MPUKFt8qsZWl-20" value="退出系统" style="rounded=0;whiteSpace=wrap;html=1;" vertex="1" parent="1">
          <mxGeometry x="110" y="190" width="20" height="90" as="geometry" />
        </mxCell>
        <mxCell id="u8Xegxe5MPUKFt8qsZWl-21" value="地图拖动" style="rounded=0;whiteSpace=wrap;html=1;" vertex="1" parent="1">
          <mxGeometry x="145" y="190" width="20" height="90" as="geometry" />
        </mxCell>
        <mxCell id="u8Xegxe5MPUKFt8qsZWl-22" value="地图放大" style="rounded=0;whiteSpace=wrap;html=1;" vertex="1" parent="1">
          <mxGeometry x="175" y="190" width="20" height="90" as="geometry" />
        </mxCell>
        <mxCell id="u8Xegxe5MPUKFt8qsZWl-23" value="地图缩小" style="rounded=0;whiteSpace=wrap;html=1;" vertex="1" parent="1">
          <mxGeometry x="205" y="190" width="20" height="90" as="geometry" />
        </mxCell>
        <mxCell id="u8Xegxe5MPUKFt8qsZWl-24" value="地图识别" style="rounded=0;whiteSpace=wrap;html=1;" vertex="1" parent="1">
          <mxGeometry x="235" y="190" width="20" height="90" as="geometry" />
        </mxCell>
        <mxCell id="u8Xegxe5MPUKFt8qsZWl-25" value="添加栅格" style="rounded=0;whiteSpace=wrap;html=1;" vertex="1" parent="1">
          <mxGeometry x="280" y="190" width="20" height="90" as="geometry" />
        </mxCell>
        <mxCell id="u8Xegxe5MPUKFt8qsZWl-26" value="添加矢量" style="rounded=0;whiteSpace=wrap;html=1;" vertex="1" parent="1">
          <mxGeometry x="370" y="190" width="20" height="90" as="geometry" />
        </mxCell>
        <mxCell id="u8Xegxe5MPUKFt8qsZWl-29" value="编辑要素" style="rounded=0;whiteSpace=wrap;html=1;" vertex="1" parent="1">
          <mxGeometry x="410" y="190" width="20" height="90" as="geometry" />
        </mxCell>
        <mxCell id="u8Xegxe5MPUKFt8qsZWl-30" value="删除选中要素" style="rounded=0;whiteSpace=wrap;html=1;" vertex="1" parent="1">
          <mxGeometry x="440" y="190" width="20" height="90" as="geometry" />
        </mxCell>
        <mxCell id="u8Xegxe5MPUKFt8qsZWl-31" value="绘制点" style="rounded=0;whiteSpace=wrap;html=1;" vertex="1" parent="1">
          <mxGeometry x="470" y="190" width="20" height="90" as="geometry" />
        </mxCell>
        <mxCell id="u8Xegxe5MPUKFt8qsZWl-32" value="绘制面" style="rounded=0;whiteSpace=wrap;html=1;" vertex="1" parent="1">
          <mxGeometry x="500" y="190" width="20" height="90" as="geometry" />
        </mxCell>
        <mxCell id="u8Xegxe5MPUKFt8qsZWl-34" value="ND&lt;div&gt;VI计算&lt;/div&gt;" style="rounded=0;whiteSpace=wrap;html=1;" vertex="1" parent="1">
          <mxGeometry x="540" y="190" width="20" height="90" as="geometry" />
        </mxCell>
        <mxCell id="u8Xegxe5MPUKFt8qsZWl-35" value="ND&lt;div&gt;VI重分类&lt;/div&gt;" style="rounded=0;whiteSpace=wrap;html=1;" vertex="1" parent="1">
          <mxGeometry x="565" y="190" width="20" height="90" as="geometry" />
        </mxCell>
        <mxCell id="u8Xegxe5MPUKFt8qsZWl-36" value="非监督分类" style="rounded=0;whiteSpace=wrap;html=1;" vertex="1" parent="1">
          <mxGeometry x="600" y="190" width="20" height="90" as="geometry" />
        </mxCell>
        <mxCell id="u8Xegxe5MPUKFt8qsZWl-37" value="监督分类" style="rounded=0;whiteSpace=wrap;html=1;" vertex="1" parent="1">
          <mxGeometry x="630" y="190" width="20" height="90" as="geometry" />
        </mxCell>
        <mxCell id="u8Xegxe5MPUKFt8qsZWl-38" value="版本信息" style="rounded=0;whiteSpace=wrap;html=1;" vertex="1" parent="1">
          <mxGeometry x="695" y="190" width="20" height="90" as="geometry" />
        </mxCell>
        <mxCell id="u8Xegxe5MPUKFt8qsZWl-39" value="关于Q&lt;div&gt;t&lt;/div&gt;&lt;div&gt;配置&lt;/div&gt;" style="rounded=0;whiteSpace=wrap;html=1;" vertex="1" parent="1">
          <mxGeometry x="670" y="190" width="20" height="90" as="geometry" />
        </mxCell>
        <mxCell id="u8Xegxe5MPUKFt8qsZWl-40" value="系统帮助" style="rounded=0;whiteSpace=wrap;html=1;" vertex="1" parent="1">
          <mxGeometry x="730" y="190" width="20" height="90" as="geometry" />
        </mxCell>
        <mxCell id="u8Xegxe5MPUKFt8qsZWl-41" value="联系开发者" style="rounded=0;whiteSpace=wrap;html=1;" vertex="1" parent="1">
          <mxGeometry x="760" y="190" width="20" height="90" as="geometry" />
        </mxCell>
        <mxCell id="u8Xegxe5MPUKFt8qsZWl-44" value="选择要素" style="rounded=0;whiteSpace=wrap;html=1;" vertex="1" parent="1">
          <mxGeometry x="410" y="290" width="110" height="20" as="geometry" />
        </mxCell>
        <mxCell id="u8Xegxe5MPUKFt8qsZWl-45" value="影像裁剪" style="rounded=0;whiteSpace=wrap;html=1;" vertex="1" parent="1">
          <mxGeometry x="540" y="290" width="110" height="20" as="geometry" />
        </mxCell>
        <mxCell id="u8Xegxe5MPUKFt8qsZWl-47" value="获取源码" style="rounded=0;whiteSpace=wrap;html=1;" vertex="1" parent="1">
          <mxGeometry x="670" y="290" width="110" height="20" as="geometry" />
        </mxCell>
        <mxCell id="u8Xegxe5MPUKFt8qsZWl-48" value="开发日志" style="rounded=0;whiteSpace=wrap;html=1;" vertex="1" parent="1">
          <mxGeometry x="670" y="320" width="110" height="20" as="geometry" />
        </mxCell>
      </root>
    </mxGraphModel>
  </diagram>
</mxfile>
